<?xml version="1.0" encoding="UTF-8"?>
<svg width="122px" height="36px" viewBox="0 0 122 36" version="1.1" xmlns="http://www.w3.org/2000/svg" xmlns:xlink="http://www.w3.org/1999/xlink">
    <!-- Generator: Sketch 46 (44423) - http://www.bohemiancoding.com/sketch -->
    <title>koinrex-3</title>
    <desc>Created with Sketch.</desc>
    <defs>
        <linearGradient x1="50%" y1="0%" x2="50%" y2="100%" id="linearGradient-1">
            <stop stop-color="#226AFF" offset="0%"></stop>
            <stop stop-color="#BC3AFF" offset="100%"></stop>
        </linearGradient>
    </defs>
    <g id="koinrex-3" stroke="none" stroke-width="1" fill="none" fill-rule="evenodd">
        <g fill="url(#linearGradient-1)">
            <text id="koinrex" font-family="SFUIText-Semibold, SF UI Text" font-size="24" font-weight="500" line-spacing="24" letter-spacing="-0.800000012">
                <tspan x="32" y="29">koinre</tspan>
                <tspan x="100.055469" y="29">x</tspan>
            </text>
            <path d="M17,6 C11.86925,6 8,7.934625 8,10.5 L8,25.5 C8,28.065375 11.86925,30 17,30 C22.13075,30 26,28.065375 26,25.5 L26,10.5 C26,7.934625 22.13075,6 17,6 Z M16.944875,28.875 C16.56425,28.873125 16.190375,28.855125 15.82025,28.83 L15.83525,25.834875 C16.203125,25.858875 16.57775,25.8735 16.96025,25.875 L16.96025,25.875 L16.95425,27.0615 C16.953875,27.164625 17.0375,27.24975 17.140625,27.250125 C17.141,27.250125 17.141375,27.250125 17.14175,27.250125 C17.2445,27.250125 17.328875,27.166125 17.32925,27.06375 L17.335625,25.872 C18.2585,25.8585 19.1405,25.779375 19.961375,25.642125 L19.953875,27.096375 C19.9535,27.199875 20.0375,27.284625 20.14025,27.285 C20.140625,27.285 20.141,27.285 20.141375,27.285 C20.2445,27.285 20.3285,27.201375 20.328875,27.099 L20.33675,25.575 C20.4635,25.550625 20.58875,25.524375 20.71175,25.497375 L20.697125,28.47225 C20.574875,28.50075 20.447375,28.5255 20.321375,28.550625 L20.32475,27.95475 C20.325125,27.851625 20.2415,27.766875 20.138,27.7665 C20.138,27.7665 20.137625,27.7665 20.13725,27.7665 C20.034125,27.7665 19.950125,27.850125 19.94975,27.95325 L19.946375,28.6245 C19.12625,28.77 18.2405,28.854 17.319875,28.869375 L17.325125,27.93975 C17.3255,27.83625 17.2415,27.7515 17.13875,27.751125 C17.138375,27.751125 17.138,27.751125 17.137625,27.751125 C17.0345,27.751125 16.9505,27.83475 16.950125,27.9375 L16.944875,28.875 C16.944875,28.875 16.944875,28.875 16.944875,28.875 Z M11.891,27.162 C11.796875,27.150375 11.70275,27.245625 11.702375,27.34875 L11.699375,27.960375 C11.571125,27.909 11.44325,27.858 11.321375,27.802875 C11.322125,27.796125 11.325125,27.7905 11.325125,27.784125 L11.340125,24.8715 C11.462,24.92175 11.5865,24.970875 11.714375,25.01775 L11.706125,26.59875 C11.70575,26.70225 11.789375,26.787 11.8925,26.78775 C11.892875,26.78775 11.89325,26.78775 11.893625,26.78775 C11.99675,26.78775 12.08075,26.70375 12.081125,26.601 L12.088625,25.148625 C13.077125,25.473 14.21975,25.701 15.46025,25.807125 L15.44525,28.804125 C14.214125,28.6935 13.066625,28.45275 12.073625,28.10175 L12.077375,27.35175 C12.07775,27.24675 11.994125,27.16275 11.891,27.162 Z M9.097625,23.419125 C9.54575,23.906625 10.182125,24.342375 10.96625,24.706875 L10.95125,27.619125 C9.76175,27.00075 9.083375,26.226 9.0875,25.459875 L9.097625,23.419125 Z M9.116375,19.66875 C9.22925,19.791375 9.35375,19.911 9.4895,20.0265 L9.476,22.719 C9.235625,22.398375 9.104,22.059 9.105875,21.709875 L9.116375,19.66875 Z M9.1355,15.91875 C9.583625,16.40625 10.22,16.842 11.004125,17.206875 L10.989125,20.125875 C9.82925,19.530375 9.120875,18.772125 9.125,17.959875 L9.1355,15.91875 Z M9.15425,12.174375 C9.266375,12.29625 9.390875,12.415125 9.527375,12.531 L9.513875,15.219 C9.2735,14.898375 9.141875,14.559 9.14375,14.209875 L9.15425,12.174375 Z M10.453625,14.779125 C10.454,14.779125 10.454375,14.779125 10.45475,14.779125 C10.557875,14.779125 10.641875,14.6955 10.64225,14.59275 L10.649,13.272 C11.894,13.926 13.38425,14.292 14.768,14.472375 L14.752625,17.466 C13.086125,17.236125 11.642,16.77 10.634375,16.165875 L10.638875,15.34275 C10.63925,15.238875 10.562,15.1365 10.451375,15.154125 C10.34825,15.154125 10.26425,15.237375 10.263875,15.3405 L10.260875,15.9195 C10.125125,15.821625 10.000625,15.721125 9.887375,15.618 L9.90125,12.820875 C10.018625,12.903375 10.144625,12.98325 10.275125,13.061625 L10.26725,14.5905 C10.266875,14.694375 10.3505,14.77875 10.453625,14.779125 Z M16.4525,15.246375 C16.555625,15.246375 16.639625,15.16275 16.64,15.06 L16.64225,14.6145 C16.7675,14.6175 16.89125,14.62425 17.01725,14.624625 C18.657125,14.624625 20.3255,14.439 21.895625,13.941 L21.881,16.899375 C20.46725,17.37825 18.669875,17.668125 16.626875,17.614125 L16.6355,15.93525 C16.635875,15.83175 16.55225,15.747 16.449125,15.746625 C16.356875,15.74925 16.260875,15.829875 16.2605,15.933 L16.251875,17.604 C15.86825,17.585625 15.494375,17.551875 15.12725,17.509875 L15.142625,14.516625 C15.511625,14.556375 15.88625,14.587125 16.26725,14.604 L16.265,15.057375 C16.264625,15.162 16.3655,15.240375 16.4525,15.246375 Z M23.577875,14.92725 C23.57825,14.92725 23.578625,14.92725 23.579,14.92725 C23.68175,14.92725 23.766125,14.843625 23.7665,14.740875 L23.77475,13.13025 C23.906,13.053 24.03275,12.974625 24.1505,12.89325 L24.137,15.690375 C24.023,15.79275 23.897,15.89175 23.760125,15.9885 L23.762375,15.597 C23.76275,15.493875 23.67875,15.409125 23.575625,15.40875 C23.575625,15.40875 23.57525,15.40875 23.574875,15.40875 C23.47175,15.40875 23.38775,15.492375 23.387375,15.5955 L23.384375,16.230375 C23.0525,16.424625 22.674125,16.603125 22.256375,16.76325 L22.27175,13.816125 C22.7825,13.634625 23.067125,13.505625 23.399,13.336875 L23.3915,14.738625 C23.391125,14.842125 23.47475,14.926875 23.577875,14.92725 Z M23.539625,22.427625 C23.540375,22.427625 23.540375,22.427625 23.541125,22.427625 C23.643875,22.427625 23.727875,22.343625 23.728625,22.240875 L23.7365,20.6295 C23.868125,20.551875 23.993375,20.47125 24.113,20.388375 L24.09875,23.19 C23.98475,23.292375 23.859125,23.391375 23.72225,23.48775 L23.7245,23.096625 C23.7245,22.993125 23.640875,22.908375 23.53775,22.908 L23.537,22.908 C23.433875,22.908 23.3495,22.991625 23.3495,23.094375 L23.34575,23.729625 C23.01425,23.923875 22.635875,24.102375 22.218125,24.2625 L22.23275,21.320625 C22.63925,21.1755 23.01575,21.0135 23.36,20.83575 L23.352875,22.2375 C23.352875,22.342125 23.436875,22.426875 23.539625,22.427625 Z M21.072125,28.374375 L21.0875,25.408875 C21.626375,25.274625 22.129625,25.113 22.58975,24.928875 L22.575125,27.8625 C22.1255,28.05825 21.61925,28.228875 21.072125,28.374375 Z M16.589,25.114875 L16.597625,23.435625 C16.598,23.332125 16.514375,23.247375 16.41125,23.247 C16.410875,23.247 16.4105,23.247 16.410125,23.247 C16.307,23.247 16.223,23.33025 16.222625,23.433375 L16.214,25.104375 C15.830375,25.086 15.456875,25.05225 15.08975,25.009875 L15.10475,22.02 C15.47075,22.059375 15.846125,22.0875 16.229375,22.105125 L16.227125,22.55775 C16.22675,22.660875 16.310375,22.746 16.4135,22.746375 C16.413875,22.746375 16.41425,22.746375 16.414625,22.746375 C16.51775,22.746375 16.60175,22.662375 16.602125,22.56 L16.604375,22.11825 C18.34325,22.164375 20.213375,21.968625 21.85775,21.447375 L21.84275,24.39975 C20.21375,24.951375 18.40025,25.15725 16.589,25.114875 Z M10.596125,23.665875 L10.600625,22.84275 C10.601,22.739625 10.517375,22.6545 10.41425,22.654125 C10.413875,22.654125 10.4135,22.654125 10.413125,22.654125 C10.31,22.654125 10.226,22.737375 10.225625,22.8405 L10.222625,23.4195 C10.086875,23.321625 9.962375,23.221125 9.849125,23.118 L9.863,20.316375 C9.9815,20.4 10.106375,20.481375 10.236875,20.5605 L10.229,22.0905 C10.228625,22.194 10.31225,22.27875 10.415375,22.279125 C10.41575,22.279125 10.416125,22.279125 10.4165,22.279125 C10.519625,22.279125 10.603625,22.1955 10.604,22.09275 L10.61075,20.772375 C11.694125,21.343875 13.111625,21.7665 14.72975,21.9765 L14.71475,24.966 C13.04825,24.736125 11.60375,24.269625 10.596125,23.665875 Z M11.378375,17.371125 C11.50025,17.421375 11.62475,17.4705 11.752625,17.517375 L11.74475,19.09875 C11.744375,19.201875 11.828,19.287 11.931125,19.287 C11.9315,19.287 11.931875,19.287 11.93225,19.287 C12.035375,19.287 12.119375,19.203375 12.11975,19.101 L12.126875,17.64825 C13.11575,17.972625 14.258,18.20025 15.4985,18.30675 L15.483125,21.3015 C14.233625,21.18675 13.08275,20.94075 12.111875,20.600625 L12.115625,19.849875 C12.116,19.74675 12.032375,19.661625 11.92925,19.661625 C11.928875,19.661625 11.9285,19.661625 11.928125,19.661625 C11.825,19.661625 11.741,19.74525 11.740625,19.847625 L11.737625,20.45925 C11.608625,20.407875 11.48075,20.3565 11.359625,20.30175 C11.360375,20.295375 11.363375,20.290125 11.363375,20.283 L11.378375,17.371125 Z M16.998125,18.375 L16.998125,18.375 L16.99175,19.5615 C16.991375,19.664625 17.075,19.74975 17.178125,19.750125 C17.1785,19.750125 17.178875,19.750125 17.17925,19.750125 C17.282375,19.750125 17.366375,19.666875 17.36675,19.56375 L17.373125,18.372 C18.296375,18.3585 19.17875,18.279375 19.99925,18.142125 L19.99175,19.596375 C19.991,19.699875 20.075,19.784625 20.17775,19.785 C20.1785,19.785 20.1785,19.785 20.17925,19.785 C20.282,19.785 20.366,19.701375 20.36675,19.599 L20.374625,18.075 C20.501375,18.050625 20.626625,18.02475 20.75,17.997375 L20.735,20.96925 C20.61275,20.99775 20.48525,21.0225 20.35925,21.048 L20.36225,20.455125 C20.362625,20.351625 20.279,20.266875 20.175875,20.2665 C20.1755,20.2665 20.175125,20.2665 20.17475,20.2665 C20.072,20.2665 19.987625,20.350125 19.98725,20.452875 L19.983875,21.123375 C19.164125,21.268875 18.278,21.3525 17.35775,21.368625 L17.362625,20.43975 C17.363,20.336625 17.279375,20.2515 17.17625,20.251125 C17.175875,20.251125 17.1755,20.251125 17.175125,20.251125 C17.072,20.251125 16.988,20.335125 16.987625,20.4375 L16.98275,21.375 L16.98275,21.375 C16.601,21.373125 16.227125,21.354375 15.85775,21.328875 L15.873125,18.334875 C16.241,18.3585 16.616,18.373125 16.998125,18.375 Z M21.11075,20.872125 L21.12575,17.908875 C21.665,17.77425 22.167875,17.613 22.628,17.4285 L22.613375,20.359875 C22.16375,20.55525 21.657875,20.726625 21.11075,20.872125 Z M22.950875,27.68625 L22.9655,24.768 C23.753,24.41175 24.393875,23.982 24.84725,23.499 L24.837125,25.540125 C24.833375,26.351625 24.116375,27.102375 22.950875,27.68625 Z M24.476,22.794375 L24.489875,20.102625 C24.62675,19.987875 24.752375,19.86975 24.866375,19.748625 L24.85625,21.789375 C24.854375,22.138875 24.719,22.476 24.476,22.794375 Z M22.989125,20.185125 L23.00375,17.267625 C23.79125,16.911 24.432125,16.481625 24.8855,15.998625 L24.875,18.03975 C24.8705,18.851625 24.155,19.601625 22.989125,20.185125 Z M24.513875,15.294375 L24.527375,12.607125 C24.665375,12.49275 24.790625,12.374625 24.90425,12.253875 L24.894125,14.28975 C24.89225,14.638875 24.75725,14.976375 24.513875,15.294375 Z M17.021,13.875 C14.544125,13.862625 9.14975,12.9195 9.16325,10.46025 C9.1745,8.199 13.86125,7.125 17.0555,7.125 C19.516625,7.137375 24.926,8.076 24.91325,10.53975 C24.89975,13.0095 19.4945,13.875 17.021,13.875 Z M17.053625,7.5 C13.261625,7.49775 10.297625,8.618625 10.290125,10.0905 C10.282625,11.56275 13.242125,12.730875 17.026625,12.75 C19.176125,12.75 23.779625,12.16875 23.7905,10.1595 C23.79725,8.68725 20.83775,7.519125 17.053625,7.5 Z M17.0285,12.375 C13.215125,12.3555 10.6595,11.1795 10.66475,10.09275 C10.673375,8.419875 15.087125,7.875 17.051,7.875 C20.864,7.8945 23.42,9.0705 23.414375,10.15725 C23.4095,11.244 20.827625,12.394125 17.0285,12.375 Z" id="coin-icon" fill-rule="nonzero"></path>
        </g>
    </g>
</svg>